# xmcd
#
# Track frame offsets:
#	150
#	25397
#	40972
#	54475
#	73805
#	103725
#	117097
#	135135
#	151415
#	165445
#
# Disc length: 2420
#
# Revision: 3
# Processed by: cddbd v1.5.1PL0 Copyright (c) Steve Scherf et al.
# Submitted via: audiograbber 1.83.01
# Normalized: r2:DSETVAR1
#
DISCID=7d09720a
DTITLE=Various Artist - Soul Classics
DYEAR=1997
DGENRE=Soul
TTITLE0=The Isley Brothers - That Lady (Part 1 and 2)
TTITLE1=Harold Melvin and The Blue Notes - If You Don't Know Me By Now
TTITLE2=The O'Jays - Love Train
TTITLE3=Bill Withers - Lean On Me
TTITLE4=The Intruders - I'll Always Love My Mama
TTITLE5=Sly and The Family Stone - Dance To The Music
TTITLE6=Marvin Gaye - Sexual Healing
TTITLE7=Earth, Wind and Fire - September
TTITLE8=Tower Of Power - You Ought To Be Havin' Fun
TTITLE9=MFSB Feat. The Three Degrees - TSOP (The Sound Of Philadelphia)
EXTD=
EXTT0=
EXTT1=
EXTT2=
EXTT3=
EXTT4=
EXTT5=
EXTT6=
EXTT7=
EXTT8=
EXTT9=
PLAYORDER=
